<svg width="120" height="40" viewBox="0 0 120 40" fill="none" xmlns="http://www.w3.org/2000/svg">
  <path d="M10 8H25V12H14V18H24V22H14V32H10V8Z" fill="#0066CC"/>
  <path d="M28 8H32V28H42V32H28V8Z" fill="#0066CC"/>
  <path d="M45 8H60V12H49V18H58V22H49V28H60V32H45V8Z" fill="#0066CC"/>
  <path d="M62 8H66V32H62V8Z" fill="#0066CC"/>
  <path d="M73 8H69V32H73V8Z" fill="#444444"/>
  <path d="M75 8H85C89 8 92 11 92 15C92 19 89 22 85 22H79V32H75V8ZM79 18H84C86 18 88 17 88 15C88 13 86 12 84 12H79V18Z" fill="#444444"/>
  <path d="M92 8H107V12H96V18H105V22H96V28H107V32H92V8Z" fill="#444444"/>
  <path d="M110 8H114V32H110V8Z" fill="#444444"/>
  <path d="M116 8H120V32H116V8Z" fill="#444444"/>
</svg> 