<svg width="120" height="40" viewBox="0 0 120 40" fill="none" xmlns="http://www.w3.org/2000/svg">
  <path d="M29 10C29 7.23858 31.2386 5 34 5C36.7614 5 39 7.23858 39 10V20C39 22.7614 36.7614 25 34 25C31.2386 25 29 22.7614 29 20V10Z" fill="#4A5568"/>
  <path d="M34 25C31.2386 25 29 27.2386 29 30C29 32.7614 31.2386 35 34 35C36.7614 35 39 32.7614 39 30" stroke="#4A5568" stroke-width="2"/>
  <path d="M18 18C18 11.3726 23.3726 6 30 6H38C44.6274 6 50 11.3726 50 18" stroke="#4A5568" stroke-width="2" stroke-linecap="round"/>
  <text x="55" y="25" font-family="Arial" font-size="12" font-weight="bold" fill="#4A5568">umbrella</text>
</svg> 